<svg id="Слой_1" data-name="Слой 1" xmlns="http://www.w3.org/2000/svg" viewBox="0 0 286.9447 175.46903"><defs><style>.cls-1{fill:#fff;}</style></defs><title>new-logo</title><path class="cls-1" d="M0-10.47349H286.9447V196.426H0ZM67.21281,96.3977c-.24808-1.9211-.43743-3.738-.73424-5.53716a12.83826,12.83826,0,0,0-.75869-2.623c-1.91864-4.82843-5.70749-6.402-10.4351-4.25005a17.60663,17.60663,0,0,0-3.539,2.28c-9.03532,7.14993-10.22694,17.58774-11.62266,27.9284a2.96417,2.96417,0,0,0,.15757.97893c1.36087,6.11858,7.76836,8.76055,13.31948,4.91207C61.78732,114.41094,66.59193,106.50492,67.21281,96.3977Zm92.32564-48.03123c0,3.98954.01018,7.9791-.00223,11.96859-.02241,7.20514-.02734,7.11949,7.175,7.17871,2.26531.01861,2.79792-.7952,2.77632-2.90753-.09426-9.22491-.04049-18.45133-.04048-27.6772,0-7.53385.00041-7.46615-7.44069-7.42168-2.03436.01216-2.5368.76457-2.50283,2.652C159.60074,37.56021,159.53775,42.96391,159.53845,48.36647ZM37.70757,130.359a25.24763,25.24763,0,0,1-2.24918-3.15116c-2.48729-5.16949-4.84783-10.40006-7.34305-15.56562-1.83253-3.79367-1.65522-3.87427,1.1284-7.13592a49.1794,49.1794,0,0,0,6.99059-9.87747c2.05891-4.189.31125-9.19649-2.91057-10.78024C29.449,81.94387,21.833,83.76391,19.67382,87.12521c-.04881.076.09511.27579.25919.70724A40.715,40.715,0,0,1,24.92253,85.82c2.7921-.73586,5.89465-1.8092,8.25787.63385,2.49346,2.57768,1.6511,5.73821.405,8.67131-1.70816,4.02057-4.68074,7.04388-8.0391,9.70958a10.0337,10.0337,0,0,1-2.27992.91172c.16964-1.5642.22536-2.62628.409-3.66577.50639-2.86693,1.197-5.70969,1.52176-8.595.09205-.81791-.82162-1.749-1.274-2.6282a18.86018,18.86018,0,0,0-2.74279,1.60458c-.372.30275-.41968,1.06225-.51968,1.63127-.56148,3.195-1.12529,6.39025-1.62542,9.59522-.32538,2.08512-.54751,4.184-4.39652,4.06291,3.57719,2.11036,2.88377,4.79072,2.83273,7.31809a14.4503,14.4503,0,0,0,.08527,3.23753,27.26944,27.26944,0,0,0,1.46992,3.80645c3.16653-3.90812,1.36571-8.56658,3.85446-12.43528.69245,1.27811,1.26129,2.15313,1.66383,3.09892,3.06352,7.19783,5.90818,14.52,10.84628,20.71364.72543.90986,2.28639,1.84993,3.2597,1.67257a3.81236,3.81236,0,0,0,2.4955-2.66539c.21293-4.08763-.027-8.19888-.10073-12.30145l-.86328-.01428C37.73652,122.86757,39.08311,126.60373,37.70757,130.359Zm94.3638-44.728-.03573-.83519a23.00754,23.00754,0,0,0-3.21022-.625,100.79774,100.79774,0,0,0-25.78626,2.12666c-1.6374.33483-3.15695.79249-3.545-1.606-.05364-.33152-.83057-.888-1.01327-.80031-1.06.50908-2.4901.95477-2.9407,1.8513a6.73009,6.73009,0,0,0-.42378,4.17439c.09974.466,2.01894.87124,3.0399.74755,2.71648-.32909,5.39774-.9535,8.09027-1.4746,3.55309-.68766,4.3274.053,3.64068,3.52829-1.73981,8.80468-3.53821,17.59832-5.19515,26.41853a52.039,52.039,0,0,0-.73,7.67914c-.02217.60222.81,1.2359,1.2491,1.8551.60889-.43588,1.47154-.7438,1.7702-1.33611a12.92977,12.92977,0,0,0,.96776-3.3296c2.14292-10.92707,4.31808-21.84853,6.33322-32.79935.40212-2.18527,1.29369-3.15583,3.506-3.33938,3.89267-.323,7.77139-.83625,11.6447-1.35395A14.32267,14.32267,0,0,0,132.07137,85.631Zm7.46676-33.26129h.01257c0,4.24883.05422,8.49868-.02674,12.746-.03231,1.69423.502,2.46969,2.28184,2.36744a42.94135,42.94135,0,0,1,5.24591.00406c1.88289.12283,2.44837-.66176,2.42655-2.48413-.07973-6.66384-.03122-13.32921-.03118-19.994,0-7.72336.00112-7.67584-7.64457-7.49271-1.74836.04187-2.32982.63728-2.2932,2.357C139.598,44.03713,139.53813,48.20407,139.53813,52.36974ZM89.99591,101.141c-1.32548,6.80129-11.21851,16.32293-16.59145,16.49079l-.90843-3.77794c-.48742.5443-.81125.74458-.88484,1.01337-.64192,2.34474-1.54785,5.0427.50819,6.814,2.09337,1.80339,4.60795.39959,6.34526-1.088a66.14852,66.14852,0,0,0,9.41918-9.21782,23.73234,23.73234,0,0,0,3.84346-8.7641c.9193-3.70894-1.41245-6.22989-5.20682-6.10591a47.70086,47.70086,0,0,0-6.6394.95983c-1.79778.31662-3.57444.7531-5.36047,1.13644l-.31647-.68288,11.6634-10.08952,1.0887,2.63431.81607.12364a33.215,33.215,0,0,0,1.62411-5.72454c.21732-2.03069-1.05335-2.75707-2.86546-1.77326A21.67512,21.67512,0,0,0,81.81119,86.328c-3.70806,3.56516-7.40685,7.16944-10.747,11.06861a5.57,5.57,0,0,0-.63827,4.83211c.77369,1.85023,2.9652,1.34838,4.69957.93353,2.74784-.65728,5.459-1.54056,8.24121-1.95791A45.81036,45.81036,0,0,1,89.99591,101.141Zm66.71292-7.36773c2.28143-2.58665,1.58724-6.61718-1.35788-9.47474-2.14046-2.07683-4.985-2.17162-7.29121.30987-7.68021,8.26383-12.22817,18.03774-12.43349,29.38935-.135,7.46114,5.64363,11.18595,12.403,8.10335,3.7301-1.70106,7.07547-4.31236,10.417-6.75578.9282-.67872,1.22293-2.22374,1.95127-3.65164-.88919,0-1.08562-.06037-1.20479.01-.64324.38-1.25768.80863-1.89955,1.1911-4.34777,2.59061-8.87221,4.60386-14.10984,4.18122-3.89334-.31417-5.72648-2.60924-4.85737-6.348a27.91329,27.91329,0,0,1,2.21927-6.85018,125.46585,125.46585,0,0,1,8.02418-13.43259c2.47029-3.48785,4.75408-3.0225,6.693.76276C155.69322,92.049,156.18945,92.85638,156.70883,93.77329ZM224.278,123.56241l1.26769.0696,4.172-11.8359,1.04089.15139c.10348,1.47978.11691,2.97316.33765,4.43524a10.3036,10.3036,0,0,0,1.00576,3.72963c.79578,1.32309,1.96853,1.36464,3.015-.46823-2.718-.96686-2.60034-3.0709-2.20006-5.30494a3.04008,3.04008,0,0,0-.08994-1.48187c-.76828-2.183.32988-3.7231,1.43454-5.48738a40.45519,40.45519,0,0,0,3.59148-7.545c.291-.79425-.54027-1.99973-.85754-3.01687a9.59477,9.59477,0,0,0-2.37436,1.96369,40.62128,40.62128,0,0,0-1.916,4.31858,8.40149,8.40149,0,0,1-1.04039,1.40117,3.67761,3.67761,0,0,1-.43144-2.51878c.87141-5.58331,1.81433-11.15617,2.601-16.7511.0957-.68074-.60385-1.47331-.93485-2.21406a12.51291,12.51291,0,0,0-2.17225,1.51277c-.34941.36413-.34085,1.08831-.45623,1.658-2.17659,10.74779-4.41023,21.48483-6.45259,32.25811C223.511,120.0578,224.10233,121.84952,224.278,123.56241ZM119.53748,56.37178V61.6023c0,5.81379,0,5.81416,5.688,5.85251.66412.00447,1.33288-.04763,1.99152.013,1.765.16246,2.296-.64345,2.25583-2.34986-.09564-4.06585-.02647-8.13555-.026-12.2037.00084-7.65413.00154-7.60387-7.689-7.39935-1.78217.04739-2.30077.71738-2.24546,2.38926C119.60571,50.72391,119.538,53.549,119.53748,56.37178Zm44.25744-41.93794c-.21641.52907-.23695.7134-.3399.80857-.55011.50855-1.105,1.01434-1.68672,1.4859A100.30731,100.30731,0,0,1,122.25082,36.2567c-.9827.2442-2.57963,1.49262-2.47952,1.98975.35025,1.73914,1.846,1.06522,3.04765.78244a99.5433,99.5433,0,0,0,42.1885-21.23439,15.93663,15.93663,0,0,1,1.54-.99578,20.45605,20.45605,0,0,0,.06425,3.8217c.13173.63625.90934,1.13878,1.39612,1.70152.47643-.57815,1.32431-1.1321,1.36385-1.73873a49.00328,49.00328,0,0,0-.02127-7.23744,2.45468,2.45468,0,0,0-1.671-1.68367,55.95045,55.95045,0,0,0-7.48729-.0087c-.54875.03146-1.05327.83432-1.57815,1.282.56616.4995,1.0655,1.27952,1.71385,1.434A16.10338,16.10338,0,0,0,163.79492,14.43384Zm90.85164,117.44847-.40614.82027a12.59607,12.59607,0,0,0,1.93271,2.77606c2.14441,1.78815,4.08059.47029,5.80243-.85461,3.63977-2.80065,5.6864-6.722,6.94018-10.99924,1.46979-5.0141,2.77911-10.088,3.84793-15.20077.44037-2.10658.07294-4.382.07294-6.67543-4.08417.42275-7.73258,1.07279-9.49378,5.15916-1.54177,3.57734-.31326,5.51133,3.514,5.57061a3.29894,3.29894,0,0,1,.8598.33745,45.93166,45.93166,0,0,1-4.51718,13.84807C261.50131,130.13649,259.888,133.697,254.64656,131.88231Zm-75.65459-23.144-.64357-.21963a16.94379,16.94379,0,0,0-.057-3.4793,10.018,10.018,0,0,0-1.36313-2.52912c-.80865.64026-2.24374,1.21363-2.32043,1.93206-.38776,3.63164-.49107,7.3005-.51782,10.95761a2.44039,2.44039,0,0,0,1.27447,1.90661,2.5286,2.5286,0,0,0,2.03183-.98729c1.35665-1.78067,2.4814-3.73606,3.78682-5.55871a16.23325,16.23325,0,0,1,2.00018-1.95975c.418,3.3067.59246,6.20634,1.23371,8.99879.2505,1.09094,1.46179,2.5946,2.3961,2.72078.97479.13163,2.204-1.09238,3.20055-1.87776a3.55914,3.55914,0,0,0,1.00079-1.69319c1.26694-4.03687,2.66321-8.04779,3.62817-12.15851.46406-1.97684.08-4.1528.08-6.23858a5.50018,5.50018,0,0,0-1.1397,2.18741c-1.46507,4.76512-2.87561,9.54767-4.40956,14.29037a13.40467,13.40467,0,0,1-1.63035,2.68873l-.85074-.19017a19.05642,19.05642,0,0,1-.77806-4.26027c.10089-2.47489.66017-4.928.85327-7.40379a11.68889,11.68889,0,0,0-.51114-2.91978,14.80267,14.80267,0,0,0-2.97389,1.12608,10.80177,10.80177,0,0,0-1.821,2.03318C180.65242,106.99491,179.81642,107.86135,178.992,108.73828Zm30.99015,12.62.94041.26764a19.59947,19.59947,0,0,0,2.34229-3.1938c1.01869-2.17924,1.60408-4.567,2.68107-6.71161,1.54016-3.06692,3.35993-5.99343,5.13428-9.10985l2.549,1.90933a10.78207,10.78207,0,0,0,.94718-2.911,10.90629,10.90629,0,0,0-.74426-2.88913,7.90209,7.90209,0,0,0-2.63664.92467,23.72938,23.72938,0,0,0-2.53536,3.0654c-.66815.79848-1.39038,1.55168-2.26118,2.51617a6.38885,6.38885,0,0,0-.50374-1.1933c-.66475-.85524-1.36975-1.6792-2.0596-2.51495a36.98874,36.98874,0,0,0-2.41148,2.80685,3.83841,3.83841,0,0,0-.37685,1.6839c-.48761,3.88032-1.02057,7.75678-1.39593,11.64828A19.49889,19.49889,0,0,0,209.98212,121.35832Zm46.83059,1.01262,1.08179.06c.68491-5.5691,1.42868-11.132,2.01315-16.71166.14542-1.38792-.92895-2.12351-2.11663-1.31026a19.4647,19.4647,0,0,0-3.2538,3.25957c-.69533.77859-1.264,1.67032-1.88926,2.51147a24.25944,24.25944,0,0,1-.603-4.23205,8.57792,8.57792,0,0,0-1.37467-2.4289c-.66351.7008-1.80848,1.34005-1.90728,2.113-.43178,3.37783-.61962,6.79222-.74848,10.19892-.02594.68616.44537,1.81423.94684,1.98743a2.4061,2.4061,0,0,0,2.16386-.70145c1.39592-1.94945,2.5627-4.063,3.81534-6.115q1.10742-1.81418,2.21414-3.62879l.46765.24779Q257.21755,114.996,256.81271,122.37094Zm-91.64-4.33178a7.29363,7.29363,0,0,1-.67981-1.31875c-.87677-3.59624.62138-6.62593,2.23767-9.66988a7.734,7.734,0,0,0,.34753-2.61989c-1.00276.2848-2.47993.24707-2.92935.90808-2.45109,3.60519-3.87748,7.60117-2.41993,11.96487a3.375,3.375,0,0,0,6.24243,1.16544c3.18431-3.92117,3.86891-8.52526,2.84582-13.39786a6.66884,6.66884,0,0,0-1.01144-1.767l-.81555.13636c0,2.57269.33378,5.20249-.09388,7.702C168.46848,113.64238,168.1167,116.47026,165.1727,118.03916Zm40.60382-14.72557-.61626.018c.272,5.30269.54888,10.60693-4.012,14.498a6.41436,6.41436,0,0,1-.80435-3.85971c.604-2.38309,1.70223-4.63654,2.46845-6.9853a10.84226,10.84226,0,0,0,.20019-2.61654c-.94482.27209-2.33444.24049-2.76152.86605-2.57014,3.76463-3.99186,7.876-2.39349,12.4604,1.02943,2.95257,3.72066,3.57425,5.78477,1.19189,3.52234-4.06535,4.37119-8.86075,3.09836-14.03689A5.83989,5.83989,0,0,0,205.77652,103.31359Zm33.24,17.23774.8415.15573c.57384-.62742,1.47-1.16709,1.66863-1.89668,1.19832-4.40249,2.30179-8.83462,3.25441-13.29581a2.43567,2.43567,0,0,0-1.18163-2.08155,3.26483,3.26483,0,0,0-2.556.66924,3.81487,3.81487,0,0,0-.9273,2.23527c-.58179,3.43659-1.16738,6.878-1.54981,10.34A16.97306,16.97306,0,0,0,239.01653,120.55133Zm-53.69034,41.73178-.61214.48476c.42471.45825.76451,1.10278,1.28909,1.34189a4.93007,4.93007,0,0,0,6.03394-2.10281,11.32941,11.32941,0,0,0,.98556-9.599c-.87495-2.7567-3.14268-3.991-5.53636-3.18892-2.38574.79947-3.78756,3.99625-2.91618,6.65019.727,2.21425,2.68481,3.00605,5.516,2.2415.43118-.11644.87424-.189,1.37521-.29536C191.0518,162.38851,189.10809,163.73554,185.32619,162.28311Zm26.08037-4.47633c.02122,4.24747-1.81936,5.57793-6.35952,4.90353a3.19277,3.19277,0,0,0,1.46944,1.55257,5.07324,5.07324,0,0,0,5.75-2.41829,11.39051,11.39051,0,0,0,.87325-9.40974c-.93217-2.78681-3.14386-4.01688-5.55-3.20218-2.30745.78131-3.69744,3.76884-2.994,6.435.5992,2.27092,2.56557,3.1875,5.40321,2.5138C210.403,158.08557,210.8019,157.96848,211.40656,157.80678ZM55.8539,159.432c0,.4794-.09177,1.03038.01384,1.07123,1.4693.56848,3.0337,1.60234,4.43519,1.4241a4.76714,4.76714,0,0,0,3.35269-2.63507c.3732-1.16751-.33886-3.04277-1.18279-4.14079-.911-1.18529-2.66861-1.68431-3.77457-2.77025a2.97006,2.97006,0,0,1-.60366-2.59c.20509-.5755,1.42373-1.02531,2.22757-1.08954a11.28,11.28,0,0,1,2.97827.59476c0-.54172.1296-.96176-.02023-1.12439-1.35962-1.47585-4.92159-1.31566-6.39341.24715-1.75076,1.859-1.51821,4.18722.65833,5.7882a30.91167,30.91167,0,0,1,3.50286,2.34249,2.94242,2.94242,0,0,1,.80954,2.54944,3.36153,3.36153,0,0,1-2.50327,1.45851C58.29774,160.59336,57.21691,159.90738,55.8539,159.432Zm84.62016.13047c-4.72,1.76977-6.66739.81053-6.26447-3.10094,1.54558,0,3.12246.09683,4.67576-.05217a2.02416,2.02416,0,0,0,1.498-1.09735,3.76256,3.76256,0,0,0-3.80643-4.43315c-2.44459.05778-4.14212,1.7-4.55162,4.40344-.4625,3.05319.88965,6.00548,3.062,6.68539C137.49243,162.72046,139.94714,161.73929,140.47406,159.56243Zm-41.27182,2.5905.77541-.54709q0-3.97931.001-7.95861c.00248-1.712-.86079-2.75117-2.55044-2.70584-2.06109.05532-4.11514.37273-6.07693.56733,0,2.81784-.05487,5.79893.04548,8.77482.0205.60816.62346,1.19669.95794,1.79427l.68571-.35773c0-2.22746-.062-4.45717.01873-6.6817.07028-1.93743,1.56432-2.38095,3.11518-2.5519,1.83355-.20211,1.968,1.16858,2.0118,2.4523.06229,1.82715-.05247,3.66326.07721,5.48351C98.30582,161.01843,98.87431,161.5771,99.20224,162.15293Zm126.39236.9758a5.21942,5.21942,0,0,0,7.4797-2.88755c.98069-2.96534-.67321-5.17329-5.1139-6.66356.04226-.82051.08666-1.6826.12215-2.37153,1.68657-.7956,3.78281.52336,5.23471-1.78537h-6.6766c-.055.8531-.0633,1.518-.14655,2.17344-.264,2.07853-.32384,3.75325,2.54636,4.24633.9557.16417,2.25538,2.24362,2.18365,3.37016-.07182,1.1283-1.521,2.34821-2.63159,3.16924C227.827,162.94579,226.60989,162.90073,225.5946,163.12873Zm-54.35678-2.79587V148.905l-4.44943,1.68823.1805.69418h2.54448v8.87239l-2.79631,1.0253c3.99853,1.16988,6.29165.91539,7.20037-.38034Zm-51.49971-6.95238.6701-.24043c-.1515-.54454-.13006-1.28585-.48556-1.59831-1.29-1.1339-4.36525-.85953-5.78486.38758a6.73213,6.73213,0,0,0-1.3041,7.57318c1.07371,2.27038,2.84982,3.14023,5.57411,2.44458a9.67822,9.67822,0,0,0,2.508-1.57662l-.41033-.72008c-2.09908.656-4.36895,2.0612-5.85641-.77231a4.70812,4.70812,0,0,1,.64413-5.77643C116.71874,151.612,118.30289,152.26943,119.73811,153.38048Zm-41.864,8.49944V151.11907l-.57253-.3414c-.39621.46975-1.10236.91508-1.14158,1.413C75.668,158.43613,76.21109,161.52483,77.87414,161.87992ZM244.7213,97.64857a20.312,20.312,0,0,0,1.72047-3.03114c.06545-.17862-1.13745-1.16848-1.3714-1.04668a4.03882,4.03882,0,0,0-1.884,1.77924C243.0331,95.72929,243.945,96.539,244.7213,97.64857Z"/><path d="M67.21281,96.3977c-.62088,10.10722-5.42549,18.01324-13.61264,23.6892-5.55112,3.84848-11.95861,1.20651-13.31948-4.91207a2.96417,2.96417,0,0,1-.15757-.97893c1.39572-10.34066,2.58734-20.77847,11.62266-27.9284a17.60663,17.60663,0,0,1,3.539-2.28c4.72761-2.152,8.51646-.57838,10.4351,4.25005a12.83826,12.83826,0,0,1,.75869,2.623C66.77538,92.6597,66.96473,94.4766,67.21281,96.3977Zm-14.18366,7.896a27.89461,27.89461,0,0,0-3.19633,1.47816c-.85885.52753-2.01249,1.1829-2.245,2.0053a31.99275,31.99275,0,0,0-1.12936,6.85337c-.05752,1.01578.45007,2.62986,1.17785,2.97927a4.27678,4.27678,0,0,0,3.42987-.39668c8.54763-4.993,13.68472-20.1953,11.20735-27.23095-1.4788-4.19976-3.68031-5.32221-7.11928-2.44046-2.37439,1.98964-4.16977,4.677-6.18794,7.08268-1.40351,1.673-1.89,3.32509.29906,4.82427.30757.21065.68627.72736.62157,1.00765C49.30455,102.97951,50.90948,103.55816,53.02915,104.29372Z"/><path d="M159.5381,48.36647c-.00035-5.40256.06264-10.80626-.03454-16.20708-.034-1.88746.46847-2.63987,2.50283-2.652,7.4411-.04447,7.44069-.11217,7.44069,7.42168,0,9.22587-.05378,18.45229.04048,27.6772.0216,2.11233-.511,2.92614-2.77632,2.90753-7.20236-.05922-7.19743.02643-7.175-7.17871C159.54863,56.34557,159.53845,52.356,159.5381,48.36647Z"/><path d="M37.70757,130.359c1.38136-3.77117.01749-7.52307,2.506-10.21079l.83673.30216c.07867,4.01831.30452,8.0443.096,12.04763a3.81236,3.81236,0,0,1-2.4955,2.66539c-.97331.17736-2.53427-.76271-3.2597-1.67257-4.9381-6.19368-7.78276-13.51581-10.84628-20.71364-.40254-.94579-.97138-1.82081-1.66383-3.09892-2.48875,3.8687-.68793,8.52716-3.85446,12.43528a27.26944,27.26944,0,0,1-1.46992-3.80645,14.4503,14.4503,0,0,1-.08527-3.23753c.051-2.52737.74446-5.20773-2.83273-7.31809,3.849.1211,4.07114-1.97779,4.39652-4.06291.50013-3.205.22941-4.70154.7909-7.89656.1-.569.15761-3.24144.52959-3.54419.4719-.38406,1.1147-1.509,1.71752-1.96683.64468-.48959,1.29079.00968,2.033.33275.85281.3712,1.15018,2.34516,1.09089,2.872-.32473,2.8853-1.01537,5.72806-1.52176,8.595-.1836,1.03949-.23932,2.10157-.409,3.66577a10.0337,10.0337,0,0,0,2.27992-.91172c3.35836-2.6657,6.41862-5.70459,7.64176-9.89823.8555-2.93312,2.48584-5.905-.00762-8.48266-2.36322-2.443-5.46577-1.36971-8.25787-.63385A40.715,40.715,0,0,0,19.933,87.83245c-.16408-.43145-1.17425-.84531-1.12544-.9213,2.15919-3.3613,10.05756-5.53039,13.93234-3.62566,3.22181,1.58374,5.55333,7.15432,3.49442,11.34334a49.1794,49.1794,0,0,1-6.99059,9.87747c-2.78362,3.26165-2.96093,3.34225-1.1284,7.13592,2.49522,5.16556,4.85576,10.39613,7.34305,15.56562A25.24763,25.24763,0,0,0,37.70757,130.359Z"/><path d="M132.07137,85.631a14.32267,14.32267,0,0,1-2.6383.88145c-3.87331.5177-7.752,1.031-11.6447,1.35395-2.21227.18355-3.10384,1.15411-3.506,3.33938-2.01514,10.95082-4.1903,21.87228-6.33322,32.79935a12.92977,12.92977,0,0,1-.96776,3.3296c-.29866.59231-1.16131.90023-1.7702,1.33611-.43911-.6192-1.27127-1.25288-1.2491-1.8551a52.039,52.039,0,0,1,.73-7.67914c1.65694-8.82021,3.45534-17.61385,5.19515-26.41853.68672-3.47524-.08759-4.216-3.64068-3.52829-2.69253.5211-5.37379,1.14551-8.09027,1.4746-1.021.12369-2.94016-.2816-3.0399-.74755a6.73009,6.73009,0,0,1,.42378-4.17439c.4506-.89653,1.88073-1.34222,2.9407-1.8513.1827-.08773.95963.46879,1.01327.80031.388,2.39847,1.90758,1.94081,3.545,1.606a100.79774,100.79774,0,0,1,25.78626-2.12666,23.00754,23.00754,0,0,1,3.21022.625Z"/><path d="M139.53813,52.36974c0-4.16567.05988-8.33261-.02882-12.49639-.03662-1.7197.54484-2.31511,2.2932-2.357,7.64569-.18313,7.64462-.23065,7.64457,7.49271,0,6.6648-.04855,13.33017.03118,19.994.02182,1.82237-.54366,2.607-2.42655,2.48413a42.94135,42.94135,0,0,0-5.24591-.00406c-1.77986.10225-2.31415-.67321-2.28184-2.36744.081-4.24729.02674-8.49714.02674-12.746Z"/><path d="M89.99591,101.141a45.81036,45.81036,0,0,0-6.62917.06327c-2.78221.41735-5.49337,1.30063-8.24121,1.95791-1.73437.41485-3.92588.9167-4.69957-.93353a5.57,5.57,0,0,1,.63827-4.83211c3.34011-3.89917,7.0389-7.50345,10.747-11.06861a21.67512,21.67512,0,0,1,4.71975-3.23856c1.81211-.98381,3.08278-.25743,2.86546,1.77326a33.215,33.215,0,0,1-1.62411,5.72454l-.81607-.12364-1.0887-2.63431L74.20412,97.91876l.31647.68288c1.786-.38334,3.56269-.81982,5.36047-1.13644a47.70086,47.70086,0,0,1,6.6394-.95983c3.79437-.124,6.12612,2.397,5.20682,6.10591a23.73234,23.73234,0,0,1-3.84346,8.7641,66.14852,66.14852,0,0,1-9.41918,9.21782c-1.73731,1.48758-4.25189,2.89138-6.34526,1.088-2.056-1.77125-1.15011-4.46921-.50819-6.814.07359-.26879.39742-.46907.88484-1.01337l.90843,3.77794C78.7774,117.464,88.67043,107.94231,89.99591,101.141Z"/><path d="M156.70883,93.77329c-.51938-.91691-1.01561-1.72428-1.44635-2.5652-1.939-3.78526-4.22275-4.25061-6.693-.76276a125.46585,125.46585,0,0,0-8.02418,13.43259,27.91329,27.91329,0,0,0-2.21927,6.85018c-.86911,3.73873.964,6.0338,4.85737,6.348,5.23763.42264,9.76207-1.59061,14.10984-4.18122.64187-.38247,1.25631-.81109,1.89955-1.1911.11917-.07042.3156-.01,1.20479-.01-.72834,1.4279-1.02307,2.97292-1.95127,3.65164-3.34152,2.44342-6.68689,5.05472-10.417,6.75578-6.7594,3.0826-12.538-.64221-12.403-8.10335.20532-11.35161,4.75328-21.12552,12.43349-29.38935,2.30624-2.48149,5.15075-2.3867,7.29121-.30987C158.29607,87.15611,158.99026,91.18664,156.70883,93.77329Z"/><path d="M224.278,123.56241c-.17562-1.71289-.767-3.50461-.45964-5.126,2.04236-10.77328,4.276-21.51032,6.45259-32.25811.11538-.56971.10682-1.29389.45623-1.658a12.51291,12.51291,0,0,1,2.17225-1.51277c.331.74075,1.03055,1.53332.93485,2.21406-.7867,5.59493-1.72962,11.16779-2.601,16.7511a3.67761,3.67761,0,0,0,.43144,2.51878,8.40149,8.40149,0,0,0,1.04039-1.40117,40.62128,40.62128,0,0,1,1.916-4.31858,9.59477,9.59477,0,0,1,2.37436-1.96369c.31727,1.01714,1.14857,2.22262.85754,3.01687a40.45519,40.45519,0,0,1-3.59148,7.545c-1.10466,1.76428-2.20282,3.30442-1.43454,5.48738a3.04008,3.04008,0,0,1,.08994,1.48187c-.40028,2.234-.5179,4.33808,2.20006,5.30494-1.04643,1.83287-2.21918,1.79132-3.015.46823a10.3036,10.3036,0,0,1-1.00576-3.72963c-.22074-1.46208-.23417-2.95546-.33765-4.43524l-1.04089-.15139-4.172,11.8359Z"/><path d="M119.53773,56.37178c.00027-2.82282.068-5.64787-.0253-8.46761-.05531-1.67188.46329-2.34187,2.24546-2.38926,7.69049-.20452,7.68979-.25478,7.689,7.39935-.00044,4.06815-.06961,8.13785.026,12.2037.04015,1.70641-.49081,2.51232-2.25583,2.34986-.65864-.06064-1.3274-.00854-1.99152-.013-5.688-.03835-5.688-.03872-5.688-5.85251Q119.53748,58.987,119.53773,56.37178Z"/><path d="M163.79492,14.43384a16.10338,16.10338,0,0,1-3.46713-.06453c-.64835-.15444-1.14769-.93446-1.71385-1.434.52488-.44763,1.0294-1.25049,1.57815-1.282a55.95045,55.95045,0,0,1,7.48729.0087,2.45468,2.45468,0,0,1,1.671,1.68367,49.00328,49.00328,0,0,1,.02127,7.23744c-.03954.60663-.88742,1.16058-1.36385,1.73873-.48678-.56274-1.26439-1.06527-1.39612-1.70152a20.45605,20.45605,0,0,1-.06425-3.8217,15.93663,15.93663,0,0,0-1.54.99578A99.5433,99.5433,0,0,1,122.819,39.02889c-1.20163.28278-2.6974.9567-3.04765-.78244-.10011-.49713,1.49682-1.74555,2.47952-1.98975A100.30731,100.30731,0,0,0,161.7683,16.72831c.58174-.47156,1.13661-.97735,1.68672-1.4859C163.558,15.14724,163.57851,14.96291,163.79492,14.43384Z"/><path d="M254.64656,131.88231c5.24147,1.81467,6.85475-1.74582,8.55293-5.21843a45.93166,45.93166,0,0,0,4.51718-13.84807,3.29894,3.29894,0,0,0-.8598-.33745c-3.8273-.05928-5.05581-1.99327-3.514-5.57061,1.7612-4.08637,5.40961-4.73641,9.49378-5.15916,0,2.29338.36743,4.56885-.07294,6.67543-1.06882,5.11279-2.37814,10.18667-3.84793,15.20077-1.25378,4.27722-3.30041,8.19859-6.94018,10.99924-1.72184,1.3249-3.658,2.64276-5.80243.85461a12.59607,12.59607,0,0,1-1.93271-2.77606Zm10.41991-21.89544a4.83487,4.83487,0,0,0,4.18976-5.52282C266.51917,104.47681,264.96112,106.44834,265.06647,109.98687Z"/><path d="M178.992,108.73828c.82445-.87693,1.66045-1.74337,2.46955-2.63423a10.80177,10.80177,0,0,1,1.821-2.03318,14.80267,14.80267,0,0,1,2.97389-1.12608,11.68889,11.68889,0,0,1,.51114,2.91978c-.1931,2.47581-.75238,4.9289-.85327,7.40379a19.05642,19.05642,0,0,0,.77806,4.26027l.85074.19017a13.40467,13.40467,0,0,0,1.63035-2.68873c1.534-4.7427,2.94449-9.52525,4.40956-14.29037a5.50018,5.50018,0,0,1,1.1397-2.18741c0,2.08578.38408,4.26174-.08,6.23858-.965,4.11072-2.36123,8.12164-3.62817,12.15851a3.55914,3.55914,0,0,1-1.00079,1.69319c-.99655.78538-2.22576,2.00939-3.20055,1.87776-.93431-.12618-2.1456-1.62984-2.3961-2.72078-.64125-2.79245-.81571-5.69209-1.23371-8.99879a16.23325,16.23325,0,0,0-2.00018,1.95975c-1.30542,1.82265-2.43017,3.778-3.78682,5.55871a2.5286,2.5286,0,0,1-2.03183.98729,2.44039,2.44039,0,0,1-1.27447-1.90661c.02675-3.65711.13006-7.326.51782-10.95761.07669-.71843,1.51178-1.2918,2.32043-1.93205a10.01781,10.01781,0,0,1,1.36313,2.52911,16.94379,16.94379,0,0,1,.057,3.4793Z"/><path d="M209.98212,121.35832a19.49889,19.49889,0,0,1-.33084-3.70141c.37536-3.8915.90832-7.768,1.39593-11.64828a3.83841,3.83841,0,0,1,.37685-1.6839,36.98665,36.98665,0,0,1,2.41148-2.80684c.68985.83574,1.39485,1.6597,2.0596,2.51494a6.38885,6.38885,0,0,1,.50374,1.1933c.8708-.96449,1.593-1.71769,2.26118-2.51617a23.72938,23.72938,0,0,1,2.53536-3.0654,7.90186,7.90186,0,0,1,2.63664-.92466,10.90612,10.90612,0,0,1,.74426,2.88912,10.78207,10.78207,0,0,1-.94718,2.911l-2.549-1.90933c-1.77435,3.11642-3.59412,6.04293-5.13428,9.10985-1.077,2.14464-1.66238,4.53237-2.68107,6.71161a19.59947,19.59947,0,0,1-2.34229,3.1938Z"/><path d="M256.81271,122.37094q.40481-7.375.80963-14.74992l-.46765-.24779q-1.107,1.81441-2.21414,3.62879c-1.25264,2.052-2.41942,4.16558-3.81534,6.115a2.4061,2.4061,0,0,1-2.16386.70145c-.50147-.1732-.97278-1.30127-.94684-1.98743.12886-3.4067.3167-6.82109.74848-10.19892.0988-.773,1.24377-1.41224,1.90728-2.113a8.57792,8.57792,0,0,1,1.37467,2.4289,24.25944,24.25944,0,0,0,.603,4.23205c.62529-.84115,1.19393-1.73288,1.88926-2.51147a19.4647,19.4647,0,0,1,3.2538-3.25957c1.18768-.81325,2.262-.07766,2.11663,1.31026-.58447,5.57963-1.32824,11.14256-2.01315,16.71166Z"/><path d="M165.1727,118.03916c2.944-1.5689,3.29578-4.39678,3.72349-6.89663.42766-2.49952.09388-5.12932.09388-7.702l.81555-.13636a6.66884,6.66884,0,0,1,1.01144,1.767c1.02309,4.8726.33849,9.47669-2.84582,13.39786a3.375,3.375,0,0,1-6.24243-1.16544c-1.45755-4.3637-.03116-8.35968,2.41993-11.96487.44942-.661,1.92659-.62328,2.92935-.90808a7.734,7.734,0,0,1-.34753,2.61989c-1.61629,3.044-3.11444,6.07364-2.23767,9.66988A7.29363,7.29363,0,0,0,165.1727,118.03916Z"/><path d="M205.77652,103.31359a5.83989,5.83989,0,0,1,.96414,1.53595c1.27283,5.17614.424,9.97154-3.09836,14.03689-2.06411,2.38236-4.75534,1.76068-5.78477-1.19189-1.59837-4.58436-.17665-8.69577,2.39349-12.4604.42708-.62556,1.8167-.594,2.76152-.86605a10.84226,10.84226,0,0,1-.20019,2.61654c-.76622,2.34876-1.86443,4.60221-2.46845,6.9853a6.41436,6.41436,0,0,0,.80435,3.85971c4.56089-3.89111,4.284-9.19535,4.012-14.498Z"/><path d="M239.01653,120.55133a16.97306,16.97306,0,0,1-.45017-3.87382c.38243-3.462.968-6.90339,1.54981-10.34a3.81487,3.81487,0,0,1,.9273-2.23527,3.26483,3.26483,0,0,1,2.556-.66924,2.43567,2.43567,0,0,1,1.18163,2.08155c-.95262,4.46119-2.05609,8.89332-3.25441,13.29581-.19858.72959-1.09479,1.26926-1.66863,1.89668Z"/><path d="M185.32619,162.28311c3.7819,1.45243,5.72561.1054,6.13514-4.4678-.501.10632-.944.17892-1.37521.29536-2.83121.76455-4.789-.02725-5.516-2.2415-.87138-2.65394.53044-5.85072,2.91618-6.65019,2.39368-.80211,4.66141.43222,5.53636,3.18892a11.32941,11.32941,0,0,1-.98556,9.599,4.93007,4.93007,0,0,1-6.03394,2.10281c-.52458-.23911-.86438-.88364-1.28909-1.34189Zm6.28769-7.531c-.04853-2.33433-1.3418-4.31256-2.9278-4.24392-2.1288.09211-2.40758,1.74-2.38525,3.36572.02414,1.75862.84039,3.10951,2.78651,3.08224C190.38969,156.938,191.84337,156.70606,191.61388,154.75215Z"/><path d="M211.40656,157.80678c-.60466.1617-1.00358.27879-1.40754.3747-2.83764.6737-4.804-.24288-5.40321-2.5138-.70348-2.66617.68651-5.6537,2.994-6.435,2.40611-.8147,4.6178.41537,5.55,3.20218a11.39051,11.39051,0,0,1-.87325,9.40974,5.07324,5.07324,0,0,1-5.75,2.41829,3.19277,3.19277,0,0,1-1.46944-1.55257C209.5872,163.38471,211.42778,162.05425,211.40656,157.80678Zm.38194-2.15375c-.08089-3.22781-1.45735-5.29588-3.08673-5.16292-1.9458.15879-2.315,1.66953-2.2941,3.23266.02466,1.84593.78718,3.36976,2.89082,3.20163A6.79576,6.79576,0,0,0,211.7885,155.653Z"/><path d="M55.8539,159.432c1.363.47542,2.44384,1.1614,3.50036,1.1258a3.36153,3.36153,0,0,0,2.50327-1.45851,2.94242,2.94242,0,0,0-.80954-2.54944,30.91167,30.91167,0,0,0-3.50286-2.34249c-2.17654-1.601-2.40909-3.92923-.65833-5.7882,1.47182-1.56281,5.03379-1.723,6.39341-.24715.14983.16263.02023.58267.02023,1.12439a11.28,11.28,0,0,0-2.97827-.59476c-.80384.06423-2.02248.514-2.22757,1.08954a2.97006,2.97006,0,0,0,.60366,2.59c1.106,1.08594,2.86355,1.585,3.77457,2.77025.84393,1.098,1.556,2.97328,1.18279,4.14079a4.76714,4.76714,0,0,1-3.35269,2.63507c-1.40149.17824-2.96589-.85562-4.43519-1.4241C55.76213,160.46234,55.8539,159.91136,55.8539,159.432Z"/><path d="M140.47406,159.56243c-.52692,2.17686-2.98163,3.158-5.38679,2.40522-2.17231-.67991-3.52446-3.6322-3.062-6.68539.4095-2.7034,2.107-4.34566,4.55162-4.40344a3.76256,3.76256,0,0,1,3.80643,4.43315,2.02416,2.02416,0,0,1-1.498,1.09735c-1.5533.149-3.13018.05217-4.67576.05217C133.80667,160.373,135.75407,161.3322,140.47406,159.56243Zm-2.10458-4.58762.46286-.61255c-.76635-.73132-1.63724-2.13748-2.275-2.03866-1.00225.15525-1.84737,1.32466-2.759,2.06463l.49519.58658Z"/><path d="M99.20224,162.15293c-.32793-.57583-.89642-1.1345-.9389-1.73064-.12968-1.82025-.01492-3.65636-.07721-5.48351-.04377-1.28372-.17825-2.65441-2.0118-2.4523-1.55086.171-3.0449.61447-3.11518,2.5519-.0807,2.22453-.01873,4.45424-.01873,6.6817l-.68571.35773c-.33448-.59758-.93744-1.18611-.95794-1.79427-.10035-2.97589-.04548-5.957-.04548-8.77482,1.96179-.1946,4.01584-.512,6.07693-.56733,1.68965-.04533,2.55292.99385,2.55044,2.70584q-.00576,3.9793-.001,7.95861Z"/><path d="M225.5946,163.12873c1.01529-.228,2.23244-.18294,2.99793-.74884,1.11063-.821,2.55977-2.04094,2.63159-3.16924.07173-1.12654-1.22795-3.206-2.18365-3.37016-2.8702-.49308-2.8104-2.1678-2.54636-4.24633.08325-.65541.09155-1.32034.14655-2.17344h6.6766c-1.4519,2.30873-3.54814.98977-5.23471,1.78537-.03549.68893-.07989,1.551-.12215,2.37153,4.44069,1.49027,6.09459,3.69822,5.1139,6.66356A5.21942,5.21942,0,0,1,225.5946,163.12873Z"/><path d="M171.23782,160.33286l2.67961.47186c-.90872,1.29573-3.20184,1.55022-7.20037.38034l2.79631-1.0253v-8.87239h-2.54448l-.1805-.69418,4.44943-1.68823Z"/><path d="M119.73811,153.38048c-1.43522-1.11105-3.01937-1.76851-4.445-.27884a4.70812,4.70812,0,0,0-.64413,5.77643c1.48746,2.83351,3.75733,1.4283,5.85641.77231l.41033.72008a9.67822,9.67822,0,0,1-2.508,1.57662c-2.72429.69565-4.5004-.1742-5.57411-2.44458a6.73213,6.73213,0,0,1,1.3041-7.57318c1.41961-1.24711,4.49485-1.52148,5.78486-.38758.3555.31246.33406,1.05377.48556,1.59831Z"/><path d="M77.87414,161.87992c-1.663-.35509-2.20616-3.44379-1.71411-9.68929.03922-.49788.74537-.94321,1.14158-1.413l.57253.3414Z"/><path d="M244.7213,97.64857c-.77632-1.10958-1.6882-1.91928-1.53494-2.29858a4.03882,4.03882,0,0,1,1.884-1.77924c.23395-.1218,1.43685.86806,1.3714,1.04668A20.312,20.312,0,0,1,244.7213,97.64857Z"/><path class="cls-1" d="M53.02915,104.29372c-2.11967-.73556-3.7246-1.31421-3.14217-3.83739.0647-.28029-.314-.797-.62157-1.00765-2.18909-1.49918-1.70257-3.15124-.29906-4.82427,2.01817-2.40571,3.81355-5.093,6.18794-7.08268,3.439-2.88175,5.64048-1.7593,7.11928,2.44046,2.47737,7.03565-2.65972,22.238-11.20735,27.23095a4.27678,4.27678,0,0,1-3.42987.39668c-.72778-.34941-1.23537-1.96349-1.17785-2.97927a31.99275,31.99275,0,0,1,1.12936-6.85337c.23247-.8224,1.38611-1.47777,2.245-2.0053A27.89461,27.89461,0,0,1,53.02915,104.29372Z"/><path class="cls-1" d="M265.06647,109.98687c-.10535-3.53853,1.4527-5.51006,4.18976-5.52282A4.83487,4.83487,0,0,1,265.06647,109.98687Z"/><path class="cls-1" d="M191.616,154.75456c.22736,1.9515-1.22632,2.18342-2.52867,2.20163-1.94612.02727-2.76237-1.32362-2.78651-3.08224-.02233-1.6257.25645-3.27361,2.38525-3.36572C190.27208,150.43959,191.56535,152.41782,191.616,154.75456Z"/><path class="cls-1" d="M211.7885,155.653a6.79576,6.79576,0,0,1-2.49,1.27137c-2.10364.16813-2.86616-1.3557-2.89082-3.20163-.02089-1.56313.3483-3.07387,2.2941-3.23266C210.33115,150.35715,211.70761,152.42522,211.7885,155.653Z"/><path class="cls-1" d="M138.36948,154.97481h-4.076l-.49519-.58658c.91165-.74,1.75677-1.90938,2.759-2.06463.63774-.09882,1.50863,1.30734,2.275,2.03866Z"/></svg>