<svg version="1" xmlns="http://www.w3.org/2000/svg" width="682.667" height="682.667" viewBox="0 0 512.000000 512.000000"><path d="M33.8 2.5C17.7 6.9 4.7 20.3 1.1 36.1.5 38.7 0 59.7 0 88.2V136h512V87.6c0-44.6-.1-48.9-1.9-54.5-1-3.3-3-8-4.4-10.3-3.8-6.5-12.9-14.5-20.5-18.1l-6.7-3.2-220-.2C81 1.2 37.6 1.4 33.8 2.5zM139.9 62c10.7 3 14.2 16.7 6.3 24.3-5.7 5.5-13.9 5.7-19.8.5-9.7-8.5-4-24.6 9.1-25.7.6-.1 2.6.3 4.4.9zM294.5 197.2c-5 2.7-7.2 6.9-22.6 43.2-8.9 20.9-29.5 69.1-45.7 107-16.1 37.8-29.6 70.3-29.9 72.1-.9 5.3 2.9 11.9 8.1 14.4 2.3 1.2 5.3 2.1 6.6 2.1 4.3 0 10.5-3.8 12.7-7.8 1.1-2 8-17.6 15.3-34.7 7.3-17.1 14.6-33.9 16.3-37.5 1.6-3.6 16-36.8 31.8-73.8 20.4-47.5 28.9-68.5 28.9-71 0-8.5-6.7-15.2-14.9-15.2-2.5 0-5.5.6-6.6 1.2zM160.7 242.3c-1.5.7-20.3 15.1-41.7 32.2-40.1 32-43 34.7-43 41.5 0 6.8 2.9 9.5 42.9 41.5 23.3 18.5 40.5 31.6 42.9 32.4 13.7 4.9 25.1-13.1 15.1-23.8-1.2-1.3-15.4-12.9-31.6-25.8-16.1-12.9-29.3-23.8-29.3-24.3s13.7-11.8 30.5-25.2c36.3-28.9 37.6-30.7 32.4-41.4-3.2-6.8-11.5-10-18.2-7.1zM339.2 242.7c-7 3.4-10.1 12.5-6.7 19.7 1.3 2.7 9.4 9.7 32.6 28.3 17 13.6 30.9 25 30.9 25.3 0 .3-13.9 11.7-30.9 25.3-33.4 26.8-34.8 28.2-33.8 36.3 1.1 10.2 12.2 16.5 21.1 11.9 1.6-.8 20.3-15.5 41.6-32.5 40.2-32.1 42-33.9 42-41 0-7.1-1.8-8.9-42-41-21.3-17-40-31.7-41.6-32.5-3.8-1.9-9.1-1.9-13.2.2z"/></svg>