<?xml version="1.0" encoding="utf-8"?>
<!-- Generator: Adobe Illustrator 23.0.3, SVG Export Plug-In . SVG Version: 6.00 Build 0)  -->
<svg version="1.1" id="Capa_1" xmlns="http://www.w3.org/2000/svg" xmlns:xlink="http://www.w3.org/1999/xlink" x="0px" y="0px"
	 viewBox="0 0 183.6 183.6" style="enable-background:new 0 0 183.6 183.6;" xml:space="preserve">
<style type="text/css">
	.st0{fill:#448CCB;}
</style>
<g>
	<path class="st0" d="M91.8,0C41.2,0,0,41.2,0,91.8c0,50.6,41.2,91.8,91.8,91.8c50.6,0,91.8-41.2,91.8-91.8
		C183.6,41.2,142.4,0,91.8,0z M91.8,171.5c-43.9,0-79.7-35.7-79.7-79.7s35.7-79.7,79.7-79.7s79.7,35.7,79.7,79.7
		S135.7,171.5,91.8,171.5z M96.3,80.4l-1.7-0.6V53.3c3.9,0.3,6.7,1.4,8.5,3.2c2.2,2.2,3.4,5.9,3.4,11.1h18c0-9.2-2.8-16.4-8.5-21.4
		c-5.1-4.5-12.2-7-21.3-7.5v-9.7h-6.4V39c-8.3,0.5-15,3-20.2,7.6c-5.8,5.3-8.8,12.4-8.8,21.3c0,7.3,2.4,13.2,7.3,17.6
		c4.5,4.1,11.7,7.7,21.6,10.8v29.3c-3.7-0.6-6.5-1.9-8.5-4.1c-2.6-2.9-3.7-7.3-3.4-13.3H57.2l-0.1,2.5c0,9.5,2.7,16.8,8.1,21.8
		c5.4,5,13,7.8,23,8.4v13.6h6.4v-13.6c9.3-0.4,16.8-3.1,22.5-8.1c6.3-5.4,9.4-12.8,9.4-22c0-7.9-2.3-14.1-6.9-18.7
		C115,87.5,107.2,83.6,96.3,80.4z M88.2,77.7c-2.8-1.1-5-2.4-6.7-3.6c-3-2.3-4.5-5.1-4.5-8.4c0-3.9,1.3-7,3.9-9.2
		c1.9-1.6,4.3-2.6,7.2-3L88.2,77.7L88.2,77.7z M103.4,122.2c-2.3,2-5.2,3.2-8.8,3.6V98.3c4.3,1.4,7.3,3,9.3,4.9
		c2.5,2.3,3.8,5.3,3.8,8.9C107.6,116.4,106.2,119.7,103.4,122.2z"/>
</g>
</svg>
