<svg version="1" xmlns="http://www.w3.org/2000/svg" width="2846.667" height="2846.667" viewBox="0 0 2135.000000 2135.000000"><path d="M1774.7 34.6c-.1.1-15 .4-33.2.8-31.6.6-44 1-66 2.1-5.5.2-15.4.7-22 1-6.6.3-14.1 1-16.7 1.6-7.5 1.7-15.6 7.7-29 21.5-6.7 7-15 15.5-18.3 18.8l-6.1 6 8.1 8.2c4.4 4.5 13.3 13.6 19.9 20.3 10.2 10.5 23.4 21.1 26.2 21.1.5 0 2 .6 3.4 1.3 1.4.8 5.5 1.9 9 2.6 3.6.7 7.4 1.5 8.5 1.7 9.5 1.9 44.8 2.4 78.5 1 10.7-.5 23.2-.9 27.8-1.1 9.5-.2 9.2-.9 4.4 10.5-.6 1.4-2.2 5.8-3.7 9.8-2.1 5.5-3.8 8.3-7.2 11.5-9.7 9-11.2 10.4-18.9 17.3-19.2 17.3-30.7 27-57.9 48.8-101.3 81.1-198.3 150.9-308.5 222.1-32.5 21-79.6 50-113.5 70-8.2 4.8-17 10-19.5 11.5-9.7 6-72.3 41.2-90.5 51-4.4 2.3-8.4 4.6-9 5-.5.4-5.9 3.3-12 6.5-6 3.2-14.2 7.5-18.2 9.6-20 10.6-32.1 16.8-68.8 35.3-22 11.1-47.2 23.6-56 27.8-26.1 12.5-50.5 24-51.5 24.3-.3 0-4.1 1.8-8.4 3.8-4.3 2-8.1 3.7-8.3 3.7-.2 0-5.1 2.3-10.8 5-5.7 2.8-10.7 5-11 5-.4 0-3.4 1.3-6.8 2.9-3.4 1.6-12 5.5-19.2 8.6-7.1 3.1-14.8 6.5-17 7.5-2.2 1-6.9 3-10.5 4.4-3.6 1.5-7.4 3.1-8.5 3.6-8.1 3.6-16.7 7.2-43 18-16.5 6.7-31.4 12.8-33.2 13.6-1.7.8-3.4 1.4-3.7 1.4-.3 0-2.5.9-4.9 1.9-3.8 1.7-11.9 4.9-39.2 15.4-22.9 8.9-53.3 20.2-78 29-30.5 10.9-49.8 17.7-51.5 18.2-.8.2-12.7 4.2-26.5 8.8-36.1 12.2-94.2 30.7-114.5 36.5-1.9.6-6.4 1.9-10 3-15.7 4.8-69.9 20.4-75.2 21.7-.9.2-10.6 2.8-21.5 5.8s-33.3 8.9-49.8 13.1c-40.1 10.3-45 11.8-58 18.5-34.8 17.9-66.5 47.3-66.5 61.5 0 4.9 3.6 16.1 7.5 23.2 9.6 17.2 25.2 23.2 51.7 19.8 5.3-.7 12.5-2 16-2.9 3.5-.9 7-1.8 7.8-2 .8-.2 12.3-3.1 25.5-6.5 13.2-3.3 25.1-6.2 26.5-6.5 1.4-.3 6.1-1.4 10.5-2.5 4.4-1.2 9.1-2.3 10.5-2.6 1.4-.3 4.3-1 6.5-1.6 2.2-.6 4.5-1.1 5-1.2.6-.2 3-.8 5.5-1.5s5.2-1.4 6-1.6c1.3-.3 4.9-1.2 12-2.9.8-.2 4.4-1.2 8-2.1l8-2c.8-.2 12.3-3.3 25.5-6.8 13.2-3.6 26.5-7.2 29.5-8 4.6-1.2 40.4-11.6 73.5-21.2 10.6-3.1 49-15.1 69-21.5 22.8-7.4 25.9-8.4 26.5-8.5 1.3-.2 32.7-10.7 34.5-11.5 1.1-.5 5.4-2 9.5-3.3 11-3.7 46.8-16.2 59.5-20.8 14.8-5.4 64.4-23.9 67.5-25.2 1.4-.6 2.7-1.1 3-1.2.3-.1 1.4-.5 2.5-1s10.1-3.9 20-7.7c9.9-3.8 19.4-7.5 21-8.3 1.7-.8 13.8-5.7 27-11s25.4-10.2 27-11c1.7-.7 7.3-3.1 12.5-5.3 16.9-7 58-24.9 79-34.5 25.8-11.7 40.1-18.3 49.5-22.7 6.1-2.9 14.6-6.9 19-9 56.9-26.7 126.4-62.4 192.4-98.7 12.3-6.8 22.6-12.3 22.9-12.3.3 0 1.3-.6 2.1-1.4.9-.7 4.1-2.7 7.1-4.3 3-1.6 10.2-5.7 16-9 133.6-76.4 263.3-162 387.5-255.8 41.1-31 100.2-77.4 117.5-92.1 1.4-1.2 10.8-9 21-17.5 10.2-8.4 18.7-15.5 19-15.9 1.6-1.9 19.4-15.9 25.4-19.9 7.3-4.9 42.1-26.1 42.8-26.1.5 0 .3 11.1-.8 40.5-1 27.8-1 66 0 76 1.1 11.8 3.4 23.9 5.4 29.3 3.4 9 10.5 17.6 29.9 36.7l19.4 19.1 18.7-18.9c22.1-22.3 19.8-19.8 24.5-26.9 6.3-9.6 6.9-12.2 8.3-38.3.3-6.1.7-13.5.9-16.5 2.6-47.5 2.6-145.3-.1-188-.2-3.6-.6-9.7-.8-13.5-1.8-27.6-2.4-32-5.6-39.2-5.2-11.9-19.6-28.9-32.3-38.2-3.2-2.3-9.1-5.8-13-7.7-8.1-3.8-11.7-4.2-44.2-5.9-5.5-.3-14-.7-19-1-17.4-.9-90.2-2.4-90.8-1.9zM1697.8 694.5c-.2.1-4.1.5-8.8.9-45.2 3-67 22.4-71.8 64.1-.4 3.3-.5 25.6-.4 49.5.2 23.9.5 288.1.6 587 .1 298.9.5 547.3.9 552 .3 4.7.9 11.9 1.2 16 .6 8.5 1.4 16.3 2 20 .2 1.4.7 4.5 1 7 5 37.8 19.1 63.4 42.3 76.5 10.7 6 34.8 13.4 48.8 15 2.8.3 5.9.7 7 .9 1 .2 4.8.7 8.4 1 3.6.4 8.5.9 11 1.1 20.6 2.1 69.2 3.4 128 3.5 30.6 0 35.9-.2 48.5-2 36.6-5.4 55.6-22.7 62.5-57.1 3.8-19.1 3.7-13.7 2.4-186.9-.4-52.5-.8-296.9-.9-543 0-246.1-.4-451.3-.8-456-.3-4.7-.9-12.8-1.2-18-.4-5.2-.8-10.9-1-12.5-.2-1.7-.7-5.5-1-8.5-.3-3-.7-6.6-1-8-.2-1.4-.7-4.1-.9-6-1.6-12.4-6.8-31.1-11.4-40.9-10.3-22.3-26.9-36.2-52.7-44.4-13.9-4.4-32.8-7.6-54.8-9.2-4.9-.4-11-.9-13.5-1.1-5.3-.5-143.9-1.4-144.4-.9zM1034.7 986.6c-.1.1-14.1.5-31.2.8-51 1.1-56.5 1.4-71.5 4.8-25.5 5.6-40.2 19.3-46.1 42.8-3 12.4-3.3 15.9-3.1 42.5.3 24 1.1 474.8 1.4 706 .1 61-.2 136.2-.7 167-.9 67.6-.9 62.1-.1 72.5 1.8 23.3 8.2 38.9 20.2 49.9 14.3 13.1 34.8 17.2 72.9 14.7 43-2.8 130-2.7 172 .1 13.2.9 33.5.9 41 .1 21.2-2.5 38-12.1 46.8-26.9 3.7-6.2 7.9-17.9 9.1-24.9.3-1.9.8-4.6 1.1-6 1.9-9.4 2-16.5 1.1-109.5-.3-33.6-.6-178-.6-321 .1-440 .2-429.3-1.5-463-1.9-38.2-5.3-62.6-11.5-81.6-3.1-9.4-8.8-22.1-10.2-22.7-.5-.2-.8-.8-.8-1.4 0-.6-1.6-3.2-3.6-5.7-19.2-24.3-47.7-34.3-107.1-37.7-8.7-.5-77.1-1.2-77.6-.8zM314.7 1279.7c-.1.1-13.9.4-30.7.8-52.9 1.1-66.8 1.6-75.3 3-2.8.5-13.3 2.6-14.7 3-.3.1-1.8.5-3.5 1-1.6.4-6.4 2.4-10.5 4.4-17.8 8.4-28.2 25.9-30.7 51.1-.9 9-.9 18.9.2 67.5.4 20.3.6 68.7.5 107.5-.8 275.6-.3 440.4 1.5 465.5 3.3 46.5 14.2 71.9 36.2 85.1 11 6.6 29.6 12.1 46.8 13.9 3.3.3 6.9.8 8.1 1 1.1.3 6.1.7 11 1 4.9.3 11.8.8 15.4 1.1 3.6.3 38.7.7 78 .9 39.3.1 76.7.6 83 1 30.4 2 47.1-1 60.2-10.8 10.4-7.8 16.4-17.7 20.3-33.5 4-16 4-17.2 2.9-98.2-.8-52.2-.8-80.8-.5-349 0-71.2-.1-136.3-.3-144.5-.7-22.4-2-45.8-3.1-54.5-.3-1.9-.7-5.8-1-8.5-3.2-29.4-11.2-54.7-22-69.5-7.6-10.4-20-19.9-33-25.3-5.1-2.2-15.8-5.7-19-6.3-.5-.1-3.5-.7-6.6-1.3-9.6-2-15.1-2.8-24.8-3.6-4.1-.4-8.4-.9-9.5-1.1-4.9-.9-78.1-2.5-78.9-1.7z"/></svg>